<svg xmlns="http://www.w3.org/2000/svg" viewBox="0 0 1440 320">
  <path fill="#0099ff" fill-opacity="1"
    d="M0,64L30,69.3C60,75,120,85,180,101.3C240,117,300,139,360,165.3C420,192,480,224,540,208C600,192,660,128,720,90.7C780,53,840,43,900,69.3C960,96,1020,160,1080,186.7C1140,213,1200,203,1260,186.7C1320,171,1380,149,1410,138.7L1440,128L1440,320L1410,320C1380,320,1320,320,1260,320C1200,320,1140,320,1080,320C1020,320,960,320,900,320C840,320,780,320,720,320C660,320,600,320,540,320C480,320,420,320,360,320C300,320,240,320,180,320C120,320,60,320,30,320L0,320Z">
  </path>
</svg>
